<svg width="110" height="30" viewBox="0 0 110 30" fill="none" xmlns="http://www.w3.org/2000/svg">
<rect width="110" height="30" fill="#EDF0F3"/>
<path d="M17.1953 11.4336H19.8613C21.0762 11.4336 21.957 11.6074 22.5039 11.9551C23.0547 12.2988 23.3301 12.8477 23.3301 13.6016C23.3301 14.1133 23.209 14.5332 22.9668 14.8613C22.7285 15.1895 22.4102 15.3867 22.0117 15.4531V15.5117C22.5547 15.6328 22.9453 15.8594 23.1836 16.1914C23.4258 16.5234 23.5469 16.9648 23.5469 17.5156C23.5469 18.2969 23.2637 18.9062 22.6973 19.3438C22.1348 19.7812 21.3691 20 20.4004 20H17.1953V11.4336ZM19.0117 14.8262H20.0664C20.5586 14.8262 20.9141 14.75 21.1328 14.5977C21.3555 14.4453 21.4668 14.1934 21.4668 13.8418C21.4668 13.5137 21.3457 13.2793 21.1035 13.1387C20.8652 12.9941 20.4863 12.9219 19.9668 12.9219H19.0117V14.8262ZM19.0117 16.2676V18.5H20.1953C20.6953 18.5 21.0645 18.4043 21.3027 18.2129C21.541 18.0215 21.6602 17.7285 21.6602 17.334C21.6602 16.623 21.1523 16.2676 20.1367 16.2676H19.0117ZM25.2578 20V11.4336H27.0742V18.5H30.5488V20H25.2578ZM39.8184 15.7051C39.8184 17.123 39.4668 18.2129 38.7637 18.9746C38.0605 19.7363 37.0527 20.1172 35.7402 20.1172C34.4277 20.1172 33.4199 19.7363 32.7168 18.9746C32.0137 18.2129 31.6621 17.1191 31.6621 15.6934C31.6621 14.2676 32.0137 13.1797 32.7168 12.4297C33.4238 11.6758 34.4355 11.2988 35.752 11.2988C37.0684 11.2988 38.0742 11.6777 38.7695 12.4355C39.4688 13.1934 39.8184 14.2832 39.8184 15.7051ZM33.5664 15.7051C33.5664 16.6621 33.748 17.3828 34.1113 17.8672C34.4746 18.3516 35.0176 18.5938 35.7402 18.5938C37.1895 18.5938 37.9141 17.6309 37.9141 15.7051C37.9141 13.7754 37.1934 12.8105 35.752 12.8105C35.0293 12.8105 34.4844 13.0547 34.1172 13.543C33.75 14.0273 33.5664 14.748 33.5664 15.7051ZM45.2324 12.8223C44.5488 12.8223 44.0195 13.0801 43.6445 13.5957C43.2695 14.1074 43.082 14.8223 43.082 15.7402C43.082 17.6504 43.7988 18.6055 45.2324 18.6055C45.834 18.6055 46.5625 18.4551 47.418 18.1543V19.6777C46.7148 19.9707 45.9297 20.1172 45.0625 20.1172C43.8164 20.1172 42.8633 19.7402 42.2031 18.9863C41.543 18.2285 41.2129 17.1426 41.2129 15.7285C41.2129 14.8379 41.375 14.0586 41.6992 13.3906C42.0234 12.7188 42.4883 12.2051 43.0938 11.8496C43.7031 11.4902 44.416 11.3105 45.2324 11.3105C46.0645 11.3105 46.9004 11.5117 47.7402 11.9141L47.1543 13.3906C46.834 13.2383 46.5117 13.1055 46.1875 12.9922C45.8633 12.8789 45.5449 12.8223 45.2324 12.8223ZM56.1367 20H54.0742L51.8301 16.3906L51.0625 16.9414V20H49.2461V11.4336H51.0625V15.3535L51.7773 14.3457L54.0977 11.4336H56.1133L53.125 15.2246L56.1367 20ZM60.8535 12.8223C60.1699 12.8223 59.6406 13.0801 59.2656 13.5957C58.8906 14.1074 58.7031 14.8223 58.7031 15.7402C58.7031 17.6504 59.4199 18.6055 60.8535 18.6055C61.4551 18.6055 62.1836 18.4551 63.0391 18.1543V19.6777C62.3359 19.9707 61.5508 20.1172 60.6836 20.1172C59.4375 20.1172 58.4844 19.7402 57.8242 18.9863C57.1641 18.2285 56.834 17.1426 56.834 15.7285C56.834 14.8379 56.9961 14.0586 57.3203 13.3906C57.6445 12.7188 58.1094 12.2051 58.7148 11.8496C59.3242 11.4902 60.0371 11.3105 60.8535 11.3105C61.6855 11.3105 62.5215 11.5117 63.3613 11.9141L62.7754 13.3906C62.4551 13.2383 62.1328 13.1055 61.8086 12.9922C61.4844 12.8789 61.166 12.8223 60.8535 12.8223ZM71.8867 20H70.0762V16.3027H66.6836V20H64.8672V11.4336H66.6836V14.791H70.0762V11.4336H71.8867V20ZM79.2988 20L78.6777 17.9609H75.5547L74.9336 20H72.9766L76 11.3984H78.2207L81.2559 20H79.2988ZM78.2441 16.4375C77.6699 14.5898 77.3457 13.5449 77.2715 13.3027C77.2012 13.0605 77.1504 12.8691 77.1191 12.7285C76.9902 13.2285 76.6211 14.4648 76.0117 16.4375H78.2441ZM82.3398 20V11.4336H84.1562V20H82.3398ZM93.9121 20H91.6035L87.877 13.5195H87.8242C87.8984 14.6641 87.9355 15.4805 87.9355 15.9688V20H86.3125V11.4336H88.6035L92.3242 17.8496H92.3652C92.3066 16.7363 92.2773 15.9492 92.2773 15.4883V11.4336H93.9121V20Z" fill="black"/>
</svg>
